<svg width="391" height="342" viewBox="0 0 391 342" fill="none" xmlns="http://www.w3.org/2000/svg">
<path d="M388.91 88.9711L349.278 60.9672C348.285 60.2652 346.912 60.9757 346.912 62.1923V274.032C346.912 274.935 347.705 275.634 348.601 275.52L388.233 270.501C388.983 270.406 389.545 269.768 389.545 269.013V90.1962C389.545 89.709 389.308 89.2522 388.91 88.9711Z" fill="#C4C4C4" stroke="#B0B0B0"/>
<path d="M281.676 266.266C282.659 266.123 283.388 265.28 283.388 264.287V2.34747C283.388 1.11615 282.263 0.181 281.047 0.376862C213.437 11.2694 164.498 19.8469 108.653 29.6348C79.3257 34.775 48.0939 40.249 11.2531 46.5674C10.391 46.7152 9.70508 47.4276 9.58969 48.2947C-4.38629 153.317 -1.93246 209.803 9.5358 303.724C9.67178 304.838 10.7 305.641 11.8102 305.48L281.676 266.266Z" fill="#585755"/>
<path d="M281.676 266.266C282.659 266.123 283.388 265.28 283.388 264.287V2.34747C283.388 1.11615 282.263 0.181 281.047 0.376862C213.437 11.2694 164.498 19.8469 108.653 29.6348C79.3257 34.775 48.0939 40.249 11.2531 46.5674C10.391 46.7152 9.70508 47.4276 9.58969 48.2947C-4.38629 153.317 -1.93246 209.803 9.5358 303.724C9.67178 304.838 10.7 305.641 11.8102 305.48L281.676 266.266Z" stroke="black"/>
<g filter="url(#filter0_d)">
<path d="M260.764 26.9327C260.764 25.6929 259.622 24.7561 258.4 24.9657C162.525 41.4164 110.43 49.7291 27.3739 64.9969C26.509 65.1559 25.8336 65.8794 25.7339 66.7532C16.8514 144.57 17.5977 190.606 25.699 274.192C25.8091 275.328 26.8711 276.16 28.001 275.996C117.837 262.883 169.093 255.402 259.034 242.274C260.017 242.131 260.764 241.286 260.764 240.293V26.9327Z" fill="white"/>
<path d="M258.57 25.9513C230.07 30.8414 205.44 35.0122 182.716 38.8602C128.988 47.9584 85.9187 55.2517 27.5547 65.9804C27.123 66.0598 26.7773 66.4298 26.7274 66.8666C17.8546 144.6 18.5982 190.564 26.6943 274.095C26.7494 274.663 27.2918 275.088 27.8566 275.006L258.89 241.285C259.393 241.211 259.764 240.778 259.764 240.293V26.9327C259.764 26.3305 259.198 25.8435 258.57 25.9513Z" stroke="#757575" stroke-width="2"/>
</g>
<path d="M337.748 294.501L337.754 294.505L337.76 294.509L348.493 300.744C349.496 301.327 350.751 300.6 350.747 299.441L349.709 35.8292C349.706 35.2744 349.398 34.7661 348.907 34.5077L324.885 21.8668C323.883 21.3399 322.682 22.0691 322.686 23.2005L323.785 286.041C323.787 286.589 324.088 287.092 324.57 287.353L337.748 294.501Z" fill="#C4C4C4" stroke="#9F9F9F"/>
<path d="M283.888 231.325V231.327V257.254V265.299C283.888 265.483 283.989 265.652 284.151 265.739L324.167 287.345C324.5 287.525 324.904 287.284 324.904 286.905V22.2056C324.904 22.0142 324.795 21.8397 324.623 21.7559L283.537 1.76658C283.204 1.60455 282.817 1.84818 282.818 2.21852L283.888 231.325Z" fill="#C4C4C4" stroke="#ABABAB"/>
<path d="M256.455 288.582L57.6858 318.054L92.6993 342L303.858 310.072L256.455 288.582Z" fill="#292929"/>
<path d="M281.676 266.266C282.659 266.123 283.388 265.28 283.388 264.287V2.34747C283.388 1.11615 282.263 0.181 281.047 0.376862C213.437 11.2694 164.498 19.8469 108.653 29.6348C79.3257 34.775 48.0939 40.249 11.2531 46.5674C10.391 46.7152 9.70508 47.4276 9.58969 48.2947C-4.38629 153.317 -1.93246 209.803 9.5358 303.724C9.67178 304.838 10.7 305.641 11.8102 305.48L281.676 266.266Z" fill="#585755"/>
<path d="M281.676 266.266C282.659 266.123 283.388 265.28 283.388 264.287V2.34747C283.388 1.11615 282.263 0.181 281.047 0.376862C213.437 11.2694 164.498 19.8469 108.653 29.6348C79.3257 34.775 48.0939 40.249 11.2531 46.5674C10.391 46.7152 9.70508 47.4276 9.58969 48.2947C-4.38629 153.317 -1.93246 209.803 9.5358 303.724C9.67178 304.838 10.7 305.641 11.8102 305.48L281.676 266.266Z" stroke="black"/>
<g filter="url(#filter1_d)">
<path d="M260.764 26.9327C260.764 25.6929 259.622 24.7561 258.4 24.9657C162.525 41.4164 110.43 49.7291 27.3739 64.9969C26.509 65.1559 25.8336 65.8794 25.7339 66.7532C16.8514 144.57 17.5977 190.606 25.699 274.192C25.8091 275.328 26.8711 276.16 28.001 275.996C117.837 262.883 169.093 255.402 259.034 242.274C260.017 242.131 260.764 241.286 260.764 240.293V26.9327Z" fill="white"/>
<path d="M258.57 25.9513C230.07 30.8414 205.44 35.0122 182.716 38.8602C128.988 47.9584 85.9187 55.2517 27.5547 65.9804C27.123 66.0598 26.7773 66.4298 26.7274 66.8666C17.8546 144.6 18.5982 190.564 26.6943 274.095C26.7494 274.663 27.2918 275.088 27.8566 275.006L258.89 241.285C259.393 241.211 259.764 240.778 259.764 240.293V26.9327C259.764 26.3305 259.198 25.8435 258.57 25.9513Z" stroke="#757575" stroke-width="2"/>
</g>
<path d="M283.888 231.325V231.327V257.254V265.299C283.888 265.483 283.989 265.652 284.151 265.739L324.167 287.345C324.5 287.525 324.904 287.284 324.904 286.905V22.2056C324.904 22.0142 324.795 21.8397 324.623 21.7559L283.537 1.76658C283.204 1.60455 282.817 1.84818 282.818 2.21852L283.888 231.325Z" fill="#C4C4C4" stroke="#ABABAB"/>
<path d="M256.455 288.582L57.6858 318.054L92.6993 342L303.858 310.072L256.455 288.582Z" fill="#292929"/>
<g filter="url(#filter2_d)">
<ellipse rx="3.77069" ry="4.29803" transform="matrix(-1 0 0 1 19.9788 292.88)" fill="#52FF00"/>
</g>
<defs>
<filter id="filter0_d" x="12.3447" y="17.9363" width="255.419" height="265.08" filterUnits="userSpaceOnUse" color-interpolation-filters="sRGB">
<feFlood flood-opacity="0" result="BackgroundImageFix"/>
<feColorMatrix in="SourceAlpha" type="matrix" values="0 0 0 0 0 0 0 0 0 0 0 0 0 0 0 0 0 0 127 0"/>
<feOffset/>
<feGaussianBlur stdDeviation="3.5"/>
<feColorMatrix type="matrix" values="0 0 0 0 1 0 0 0 0 1 0 0 0 0 1 0 0 0 0.89 0"/>
<feBlend mode="normal" in2="BackgroundImageFix" result="effect1_dropShadow"/>
<feBlend mode="normal" in="SourceGraphic" in2="effect1_dropShadow" result="shape"/>
</filter>
<filter id="filter1_d" x="12.3447" y="17.9363" width="255.419" height="265.08" filterUnits="userSpaceOnUse" color-interpolation-filters="sRGB">
<feFlood flood-opacity="0" result="BackgroundImageFix"/>
<feColorMatrix in="SourceAlpha" type="matrix" values="0 0 0 0 0 0 0 0 0 0 0 0 0 0 0 0 0 0 127 0"/>
<feOffset/>
<feGaussianBlur stdDeviation="3.5"/>
<feColorMatrix type="matrix" values="0 0 0 0 1 0 0 0 0 1 0 0 0 0 1 0 0 0 0.89 0"/>
<feBlend mode="normal" in2="BackgroundImageFix" result="effect1_dropShadow"/>
<feBlend mode="normal" in="SourceGraphic" in2="effect1_dropShadow" result="shape"/>
</filter>
<filter id="filter2_d" x="12.2081" y="284.582" width="15.5414" height="16.5961" filterUnits="userSpaceOnUse" color-interpolation-filters="sRGB">
<feFlood flood-opacity="0" result="BackgroundImageFix"/>
<feColorMatrix in="SourceAlpha" type="matrix" values="0 0 0 0 0 0 0 0 0 0 0 0 0 0 0 0 0 0 127 0"/>
<feOffset/>
<feGaussianBlur stdDeviation="2"/>
<feColorMatrix type="matrix" values="0 0 0 0 0.49 0 0 0 0 1 0 0 0 0 0.25 0 0 0 0.71 0"/>
<feBlend mode="normal" in2="BackgroundImageFix" result="effect1_dropShadow"/>
<feBlend mode="normal" in="SourceGraphic" in2="effect1_dropShadow" result="shape"/>
</filter>
</defs>
</svg>
