<svg width="392" height="343" viewBox="0 0 392 343" fill="none" xmlns="http://www.w3.org/2000/svg">
<path d="M391.045 91.1962C391.045 90.5467 390.729 89.9376 390.199 89.5628L350.567 61.5589C349.242 60.6228 347.412 61.5702 347.412 63.1923V275.032C347.412 276.237 348.469 277.168 349.664 277.016L389.296 271.997C390.295 271.87 391.045 271.02 391.045 270.013V91.1962Z" fill="#C4C4C4"/>
<path d="M389.622 90.3795L349.99 62.3756C349.327 61.9076 348.412 62.3813 348.412 63.1923V275.032C348.412 275.634 348.941 276.1 349.538 276.024L389.17 271.005C389.67 270.942 390.045 270.516 390.045 270.013V91.1962C390.045 90.8714 389.887 90.5669 389.622 90.3795Z" stroke="black" stroke-opacity="0.51" stroke-width="2"/>
<path d="M282.676 267.266C283.659 267.123 284.388 266.28 284.388 265.287V3.34747C284.388 2.11615 283.263 1.181 282.047 1.37686C214.437 12.2694 165.498 20.8469 109.653 30.6348C80.3257 35.775 49.0939 41.249 12.2531 47.5674C11.391 47.7152 10.7051 48.4276 10.5897 49.2947C-3.38629 154.317 -0.932465 210.803 10.5358 304.724C10.6718 305.838 11.7 306.641 12.8102 306.48L282.676 267.266Z" fill="#585755"/>
<path d="M282.676 267.266C283.659 267.123 284.388 266.28 284.388 265.287V3.34747C284.388 2.11615 283.263 1.181 282.047 1.37686C214.437 12.2694 165.498 20.8469 109.653 30.6348C80.3257 35.775 49.0939 41.249 12.2531 47.5674C11.391 47.7152 10.7051 48.4276 10.5897 49.2947C-3.38629 154.317 -0.932465 210.803 10.5358 304.724C10.6718 305.838 11.7 306.641 12.8102 306.48L282.676 267.266Z" stroke="black"/>
<g filter="url(#filter0_d)">
<path d="M261.764 27.9327C261.764 26.6929 260.622 25.7561 259.4 25.9657C163.525 42.4164 111.43 50.7291 28.3739 65.9969C27.509 66.1559 26.8336 66.8794 26.7339 67.7531C17.8514 145.57 18.5977 191.606 26.699 275.192C26.8091 276.328 27.871 277.16 29.001 276.996C118.837 263.883 170.093 256.402 260.034 243.274C261.017 243.131 261.764 242.286 261.764 241.293V27.9327Z" fill="white"/>
<path d="M260.764 27.9327C260.764 27.3305 260.198 26.8435 259.57 26.9513C231.07 31.8414 206.44 36.0122 183.716 39.8602C129.988 48.9584 86.9187 56.2517 28.5547 66.9804C28.123 67.0598 27.7773 67.4298 27.7274 67.8666C18.8546 145.6 19.5982 191.564 27.6943 275.095C27.7494 275.663 28.2918 276.088 28.8566 276.006L259.89 242.285C260.393 242.211 260.764 241.778 260.764 241.293V27.9327Z" stroke="#757575" stroke-width="2"/>
</g>
<path d="M351.209 36.8273C351.206 36.0875 350.795 35.4097 350.14 35.0652L326.118 22.4244C324.783 21.7218 323.18 22.694 323.186 24.2026L324.285 287.043C324.288 287.773 324.689 288.444 325.331 288.792L338.509 295.941L349.242 302.177C350.578 302.953 352.253 301.985 352.247 300.439L351.209 36.8273Z" fill="#C4C4C4" stroke="black" stroke-opacity="0.54" stroke-width="2"/>
<path d="M284.888 232.325V232.327V258.254V266.299C284.888 266.483 284.989 266.652 285.151 266.739L325.167 288.345C325.5 288.525 325.904 288.284 325.904 287.905V23.2056C325.904 23.0142 325.795 22.8397 325.623 22.756L284.537 2.76658C284.204 2.60456 283.817 2.84819 283.818 3.21853L284.888 232.325Z" fill="#C4C4C4" stroke="#ABABAB"/>
<path d="M257.455 289.582L58.6858 319.054L93.6993 343L304.858 311.072L257.455 289.582Z" fill="#292929"/>
<path d="M282.676 267.266C283.659 267.123 284.388 266.28 284.388 265.287V3.34748C284.388 2.11616 283.263 1.18101 282.047 1.37686C178.931 17.9897 119.246 29.2175 12.2531 47.5674C11.391 47.7152 10.7051 48.4277 10.5897 49.2947C-3.38628 154.317 -0.932479 210.803 10.5358 304.724C10.6718 305.838 11.7 306.641 12.8103 306.48L282.676 267.266Z" fill="#585755" stroke="black" stroke-opacity="0.58" stroke-width="2"/>
<g filter="url(#filter1_d)">
<path d="M261.764 27.9327C261.764 26.6929 260.622 25.7561 259.4 25.9657C163.525 42.4164 111.43 50.7291 28.3739 65.9969C27.509 66.1559 26.8336 66.8794 26.7339 67.7531C17.8514 145.57 18.5977 191.606 26.699 275.192C26.8091 276.328 27.8711 277.16 29.001 276.996C118.837 263.883 170.093 256.402 260.034 243.274C261.017 243.131 261.764 242.286 261.764 241.293V27.9327Z" fill="#502BBB"/>
<path d="M259.57 26.9513C231.07 31.8414 206.44 36.0122 183.716 39.8601C129.988 48.9583 86.9188 56.2517 28.5547 66.9804C28.123 67.0598 27.7773 67.4298 27.7274 67.8666C18.8546 145.6 19.5982 191.564 27.6943 275.095C27.7494 275.663 28.2918 276.088 28.8566 276.006L259.89 242.285C260.393 242.211 260.764 241.778 260.764 241.293V27.9327C260.764 27.3305 260.198 26.8435 259.57 26.9513Z" stroke="#595959" stroke-opacity="0.85" stroke-width="2"/>
</g>
<path d="M326.404 23.2056C326.404 22.8229 326.186 22.4738 325.842 22.3063L284.756 2.31697C284.09 1.99293 283.315 2.48018 283.318 3.22086L284.388 232.327V258.254V266.299C284.388 266.667 284.59 267.005 284.913 267.179L324.929 288.785C325.595 289.145 326.404 288.662 326.404 287.905V23.2056Z" fill="#C4C4C4" stroke="black" stroke-opacity="0.53" stroke-width="2"/>
<path d="M301.488 310.838L257.486 291.032L61.6863 319.857L94.2273 341.953L301.488 310.838Z" fill="#292929" stroke="#727272" stroke-width="2"/>
<defs>
<filter id="filter0_d" x="13.3447" y="18.9363" width="255.419" height="265.08" filterUnits="userSpaceOnUse" color-interpolation-filters="sRGB">
<feFlood flood-opacity="0" result="BackgroundImageFix"/>
<feColorMatrix in="SourceAlpha" type="matrix" values="0 0 0 0 0 0 0 0 0 0 0 0 0 0 0 0 0 0 127 0"/>
<feOffset/>
<feGaussianBlur stdDeviation="3.5"/>
<feColorMatrix type="matrix" values="0 0 0 0 1 0 0 0 0 1 0 0 0 0 1 0 0 0 0.89 0"/>
<feBlend mode="normal" in2="BackgroundImageFix" result="effect1_dropShadow"/>
<feBlend mode="normal" in="SourceGraphic" in2="effect1_dropShadow" result="shape"/>
</filter>
<filter id="filter1_d" x="9.34473" y="22.9363" width="255.419" height="265.08" filterUnits="userSpaceOnUse" color-interpolation-filters="sRGB">
<feFlood flood-opacity="0" result="BackgroundImageFix"/>
<feColorMatrix in="SourceAlpha" type="matrix" values="0 0 0 0 0 0 0 0 0 0 0 0 0 0 0 0 0 0 127 0"/>
<feOffset dx="-4" dy="4"/>
<feGaussianBlur stdDeviation="3.5"/>
<feColorMatrix type="matrix" values="0 0 0 0 0.765583 0 0 0 0 0.73217 0 0 0 0 0.970833 0 0 0 0.67 0"/>
<feBlend mode="normal" in2="BackgroundImageFix" result="effect1_dropShadow"/>
<feBlend mode="normal" in="SourceGraphic" in2="effect1_dropShadow" result="shape"/>
</filter>
</defs>
</svg>
